<?xml version="1.0" standalone="no"?>
<!DOCTYPE svg PUBLIC "-//W3C//DTD SVG 20010904//EN"
 "http://www.w3.org/TR/2001/REC-SVG-20010904/DTD/svg10.dtd">
<svg version="1.0" xmlns="http://www.w3.org/2000/svg"
 width="702.000000pt" height="666.000000pt" viewBox="0 0 702.000000 666.000000"
 preserveAspectRatio="xMidYMid meet">
<metadata>
Created by potrace 1.10, written by Peter Selinger 2001-2011
</metadata>
<g transform="translate(0.000000,666.000000) scale(0.100000,-0.100000)"
fill="#e71939" stroke="none">
<path d="M3255 6310 c-146 -11 -389 -54 -541 -96 -28 -8 -59 -14 -70 -14 -10
-1 -37 -9 -59 -20 -22 -11 -45 -19 -51 -20 -9 0 -152 -54 -269 -102 -27 -11
-72 -33 -100 -48 -27 -15 -79 -42 -115 -60 -142 -73 -410 -262 -564 -400 -117
-104 -334 -335 -374 -399 -9 -14 -41 -60 -72 -101 -30 -41 -60 -84 -67 -95 -7
-11 -41 -67 -76 -125 -64 -105 -187 -351 -187 -374 0 -7 -5 -17 -11 -23 -6 -6
-14 -26 -19 -44 -5 -19 -24 -79 -43 -134 -45 -130 -71 -223 -90 -315 -36 -173
-67 -475 -67 -637 0 -106 24 -404 39 -488 6 -33 15 -85 20 -115 21 -121 35
-172 92 -345 70 -212 55 -177 163 -395 165 -333 330 -563 581 -809 182 -179
309 -281 515 -412 106 -69 387 -214 470 -244 274 -98 350 -122 430 -136 30 -6
69 -15 87 -20 17 -5 67 -14 110 -20 43 -5 101 -14 128 -19 28 -5 154 -12 280
-16 287 -8 455 3 685 48 30 5 78 14 105 18 50 8 86 18 245 71 148 49 175 59
192 69 10 6 23 10 30 10 7 0 66 26 133 59 66 32 127 61 135 65 60 25 228 133
374 240 212 156 396 332 566 541 53 67 99 125 101 130 2 6 34 55 70 110 55 82
117 188 179 304 8 15 33 70 66 146 59 137 134 352 134 386 0 11 4 28 10 38 14
27 53 219 86 421 25 152 25 552 0 710 -49 320 -101 520 -193 755 -73 184 -82
203 -147 319 -31 54 -56 101 -56 104 0 3 -38 62 -85 131 -93 138 -199 275
-279 361 -28 31 -62 69 -76 85 -107 124 -479 416 -638 500 -31 17 -103 56
-160 88 -56 31 -107 57 -112 57 -5 0 -26 7 -47 16 -45 20 -56 24 -153 63 -170
67 -370 118 -610 157 -190 31 -460 40 -695 24z m461 -231 c21 -13 42 -39 56
-70 13 -27 27 -48 33 -46 5 2 14 23 20 46 12 51 36 68 72 52 28 -13 28 -13 3
-139 -16 -79 -8 -112 25 -112 31 0 49 37 63 135 11 71 27 95 64 95 31 0 40
-33 27 -107 -6 -38 -17 -81 -24 -98 -7 -16 -15 -39 -17 -50 -4 -26 -64 -65
-100 -65 -67 0 -138 64 -138 123 0 41 -16 40 -30 -2 -9 -28 -9 -43 -1 -59 11
-21 5 -52 -13 -64 -13 -8 -49 0 -85 18 -14 8 -34 14 -44 14 -25 0 -88 34 -112
60 -29 32 -29 183 0 221 52 68 136 89 201 48z m-565 -94 c27 -111 34 -219 15
-234 -18 -15 -72 -6 -83 13 -5 7 -25 33 -47 57 l-38 44 6 -66 c8 -74 -4 -96
-48 -85 -19 5 -27 15 -32 41 -9 48 -29 44 -48 -11 -18 -53 -43 -78 -93 -95
-51 -17 -102 -3 -141 38 -18 19 -36 33 -39 29 -3 -3 0 -26 7 -51 11 -40 11
-48 -2 -62 -38 -37 -82 11 -118 129 -13 43 -30 80 -38 83 -13 5 -61 -41 -62
-60 0 -6 4 -15 9 -20 5 -6 23 -44 40 -84 28 -65 30 -79 20 -103 -6 -15 -17
-28 -24 -28 -18 0 -65 39 -65 54 0 6 -9 29 -20 51 -11 22 -20 44 -20 50 0 29
-28 48 -71 49 -38 1 -44 4 -47 24 -5 33 11 47 95 88 54 27 82 35 103 31 23 -5
30 -2 35 14 5 16 14 19 42 17 20 -2 39 -10 43 -18 29 -61 40 -89 45 -117 4
-18 11 -33 16 -33 11 0 11 11 -1 70 -14 71 4 126 53 161 86 63 203 24 228 -77
19 -73 30 -51 27 49 l-3 92 34 3 c29 3 39 -3 76 -42 23 -25 46 -46 50 -46 4 0
4 21 0 46 -8 56 6 76 48 72 29 -3 32 -7 48 -73z m1099 12 c61 -15 72 -25 68
-61 -3 -27 -7 -31 -33 -30 -16 1 -41 3 -55 5 -20 3 -25 0 -25 -16 0 -15 8 -21
35 -25 31 -4 35 -9 38 -38 3 -26 -1 -34 -20 -41 -14 -5 -32 -4 -47 2 -19 9
-26 8 -37 -7 -17 -23 -10 -36 19 -36 13 0 33 -7 45 -16 13 -9 29 -14 35 -11 7
3 26 38 41 78 40 105 48 120 73 136 19 13 28 11 90 -15 57 -24 68 -33 71 -55
4 -34 -33 -55 -66 -38 -54 29 -71 -2 -19 -34 37 -23 43 -43 24 -69 -12 -17
-18 -17 -51 -6 -30 9 -40 10 -49 0 -9 -9 -7 -15 8 -24 11 -6 34 -25 51 -42
l31 -32 21 42 c11 22 35 71 53 107 35 72 59 94 90 84 26 -8 40 -38 48 -98 3
-28 11 -52 16 -54 6 -1 20 15 33 37 25 45 49 51 77 20 20 -22 17 -30 -71 -202
-20 -38 -17 -48 14 -48 17 0 38 -10 52 -25 12 -13 27 -22 31 -19 15 9 10 46
-8 66 -11 12 -17 36 -17 69 0 70 25 94 99 94 46 0 58 -4 84 -29 37 -36 39 -63
6 -78 -19 -9 -29 -8 -49 6 -14 9 -30 16 -36 16 -16 0 -11 -33 10 -65 40 -60
17 -137 -49 -165 -43 -17 -90 1 -140 56 -31 33 -49 44 -71 44 -31 0 -39 17
-56 111 -11 63 -15 66 -35 27 -11 -21 -31 -45 -45 -54 -23 -16 -26 -16 -47 3
-13 12 -43 23 -72 26 -50 6 -128 38 -140 57 -3 5 -30 10 -60 10 -55 0 -96 12
-127 38 -22 19 -23 76 -3 125 8 20 15 47 15 60 0 34 37 114 58 126 9 6 24 8
32 5 8 -3 35 -10 60 -17z m-870 -38 c0 -39 -36 -64 -65 -45 -49 33 -13 108 41
84 17 -8 24 -19 24 -39z m-1180 -269 c19 -16 53 -47 75 -70 22 -23 53 -48 68
-56 23 -13 28 -21 25 -47 -3 -29 -7 -32 -39 -35 -23 -2 -40 2 -49 12 -31 39
-87 4 -75 -47 8 -29 -28 -77 -52 -71 -12 3 -22 -3 -28 -18 -6 -14 -20 -24 -37
-26 -18 -2 -34 -15 -49 -38 -39 -64 -77 -84 -156 -84 l-71 0 6 -45 c4 -37 0
-52 -22 -85 -45 -69 -106 -89 -196 -66 l-25 7 23 -17 c17 -13 22 -26 22 -65 0
-44 -5 -54 -41 -94 -22 -24 -50 -45 -62 -47 -17 -2 -23 -12 -28 -44 -5 -42
-48 -110 -75 -121 -8 -3 -14 -13 -14 -23 0 -30 -36 -53 -74 -47 -25 4 -39 1
-50 -12 -21 -23 -20 -33 4 -74 16 -27 18 -40 10 -61 -5 -15 -17 -26 -28 -26
-25 0 -222 213 -222 240 0 11 10 30 21 41 18 18 28 20 63 15 22 -4 70 -11 106
-15 36 -5 72 -12 80 -15 10 -4 28 8 53 38 20 25 37 50 37 55 0 16 -53 13 -76
-4 -10 -8 -35 -15 -55 -15 -97 -1 -131 118 -54 190 49 46 98 1 60 -57 -12 -17
-14 -28 -7 -35 11 -11 16 -9 62 17 29 17 68 19 105 5 24 -9 31 -6 61 27 19 20
34 41 34 45 0 18 -33 20 -60 4 -45 -26 -89 -21 -127 16 -25 24 -33 41 -33 66
0 62 52 122 105 122 27 0 29 -46 4 -79 -18 -25 -20 -34 -10 -44 9 -9 20 -7 51
11 21 12 48 22 59 22 27 0 26 4 -6 47 -24 31 -28 46 -28 98 0 68 7 82 69 127
44 31 86 36 130 13 43 -23 49 -19 41 21 -16 90 41 189 117 201 34 5 38 3 44
-22 6 -22 1 -31 -30 -57 -32 -26 -36 -35 -36 -76 0 -88 71 -120 143 -64 19 15
42 32 52 37 14 9 9 20 -44 92 -63 86 -77 128 -50 146 21 13 68 1 76 -21 8 -20
90 -129 104 -137 12 -8 12 -14 -12 105 -24 123 -22 150 11 167 31 15 54 9 100
-27z m1555 -120 c55 -5 138 -15 185 -24 81 -15 310 -83 377 -112 17 -8 36 -14
42 -14 15 0 303 -148 356 -183 250 -164 503 -401 630 -588 16 -24 46 -66 66
-94 37 -51 89 -144 154 -275 20 -41 43 -88 51 -103 8 -16 14 -36 14 -45 0 -9
6 -29 14 -43 33 -64 89 -273 121 -449 21 -120 21 -558 -1 -684 -31 -186 -78
-360 -120 -453 -8 -17 -14 -35 -14 -41 0 -21 -81 -191 -144 -302 -14 -25 -29
-52 -32 -60 -4 -8 -30 -46 -58 -85 -28 -38 -60 -83 -70 -99 -10 -15 -41 -54
-70 -85 -28 -32 -65 -73 -81 -92 -89 -100 -298 -279 -391 -335 -17 -11 -55
-35 -85 -55 -83 -55 -308 -166 -399 -197 -178 -61 -350 -104 -507 -127 -121
-18 -448 -20 -556 -4 -95 13 -268 48 -280 56 -6 3 -35 12 -66 19 -66 15 -139
37 -200 59 -77 28 -323 153 -394 200 -38 25 -71 45 -74 45 -5 0 -106 76 -177
135 -146 119 -330 319 -422 458 -78 119 -129 201 -146 237 -62 127 -82 173
-107 235 -40 101 -51 133 -67 198 -8 31 -21 85 -29 120 -48 193 -68 432 -54
660 7 127 14 178 48 352 24 119 96 334 147 440 24 49 44 92 44 96 0 7 60 113
115 202 124 202 379 471 579 612 148 103 203 136 340 204 246 121 519 202 746
221 124 10 399 10 515 0z m1520 -108 c53 -29 80 -69 70 -102 -9 -28 -47 -25
-83 5 -43 36 -93 34 -126 -6 -37 -44 -33 -73 15 -120 50 -49 51 -82 2 -87 -27
-3 -40 5 -82 45 -79 77 -78 154 3 232 70 67 123 76 201 33z m171 -162 c38 -15
71 -53 85 -99 10 -32 9 -46 -6 -83 -17 -45 -58 -98 -75 -98 -6 0 -10 -4 -10
-10 0 -19 15 -10 85 50 74 63 98 72 115 41 21 -41 17 -48 -65 -116 -27 -22
-60 -49 -73 -61 l-25 -20 29 -42 c16 -23 36 -41 45 -42 8 0 44 20 80 45 114
79 138 87 153 48 13 -34 -7 -60 -87 -113 -45 -30 -84 -55 -87 -57 -2 -2 3 -18
12 -36 9 -18 19 -40 22 -49 8 -25 21 -22 101 23 135 75 145 75 193 -5 35 -59
40 -87 18 -105 -18 -15 -46 -4 -78 33 -23 27 -27 29 -33 13 -4 -10 -1 -24 6
-33 8 -9 12 -30 10 -46 -3 -30 -2 -30 37 -23 84 14 182 -73 185 -163 2 -46 1
-47 -28 -47 -25 0 -33 7 -52 43 -31 62 -42 72 -78 72 -25 0 -40 -8 -64 -35
-32 -36 -38 -59 -22 -84 12 -19 41 -6 41 17 0 11 7 25 15 32 43 36 102 -55 68
-106 -14 -23 -14 -24 6 -24 11 0 38 7 60 16 56 22 91 15 117 -23 27 -40 40
-118 23 -139 -22 -27 -48 -16 -71 31 -30 62 -52 61 -44 -2 4 -27 2 -54 -2 -61
-17 -25 -55 -9 -76 32 -12 21 -25 38 -31 37 -5 -1 -10 -28 -10 -61 0 -64 -10
-82 -41 -74 -30 8 -53 54 -60 121 -6 55 -5 60 17 70 24 11 24 11 -8 18 -33 7
-54 31 -85 95 -32 65 -19 124 39 178 l36 34 -32 28 c-17 16 -31 34 -31 39 0 6
-11 11 -25 11 -28 0 -32 -17 -10 -46 8 -10 15 -36 15 -56 0 -35 -2 -38 -28
-38 -23 0 -34 10 -65 58 -20 31 -37 68 -37 81 0 16 -14 36 -40 58 -22 19 -40
40 -40 48 0 7 -7 18 -15 25 -8 7 -15 20 -15 30 0 9 -29 47 -65 85 -75 78 -83
109 -38 151 32 30 28 35 -19 25 -48 -11 -86 -3 -125 26 -38 29 -63 79 -63 127
0 58 67 144 125 159 36 9 93 7 121 -3z m-4458 -931 c3 -42 6 -47 40 -62 36
-15 108 -42 144 -54 10 -3 20 -14 23 -24 16 -50 -33 -86 -77 -55 -12 9 -32 16
-43 16 -12 0 -25 4 -31 9 -5 4 -24 13 -42 19 -30 10 -37 9 -66 -13 -18 -14
-39 -25 -47 -26 -21 -1 83 -49 106 -49 42 0 135 -35 141 -53 16 -50 -8 -69
-134 -102 -30 -8 -20 -21 21 -29 67 -13 104 -79 52 -92 -30 -8 -94 1 -150 20
-22 8 -58 18 -79 22 -24 6 -47 19 -59 36 l-21 28 23 24 c12 13 41 29 64 35 23
6 48 15 56 20 18 12 5 31 -20 31 -39 0 -59 19 -59 55 0 24 5 35 19 40 15 5 18
13 13 50 -2 25 0 50 6 57 5 7 15 32 21 54 15 56 48 96 75 92 17 -2 22 -11 24
-49z m5201 -483 c85 -59 111 -206 36 -206 -27 0 -39 18 -49 72 -12 64 -83 89
-135 49 -22 -17 -24 -26 -23 -79 1 -48 -2 -63 -19 -78 -19 -17 -20 -17 -46 9
-21 21 -27 38 -31 84 -3 52 -1 62 28 101 60 83 159 103 239 48z m-5375 -22
c12 -4 16 -20 16 -54 0 -27 5 -52 10 -55 10 -6 14 1 24 47 7 31 36 44 66 28
16 -8 20 -21 20 -56 0 -38 3 -45 17 -42 10 2 22 17 27 33 18 61 26 75 45 75
34 0 44 -25 37 -92 -4 -34 -14 -74 -22 -90 -12 -24 -21 -28 -54 -28 -47 0 -49
-8 -14 -41 37 -34 54 -79 54 -143 0 -43 -5 -60 -22 -80 l-23 -25 -125 8 c-69
5 -133 12 -142 16 -40 16 -34 155 9 212 15 19 39 41 55 49 38 20 35 31 -12 44
-44 12 -44 12 -41 110 3 79 25 103 75 84z m5448 -231 c24 -21 23 -60 -1 -73
-11 -5 -51 -10 -90 -10 -89 0 -121 -12 -121 -44 0 -40 18 -47 111 -37 67 7 89
6 107 -6 68 -42 25 -78 -103 -87 -153 -11 -205 22 -205 132 0 62 13 83 70 112
54 28 206 37 232 13z m16 -309 c39 -26 29 -57 -35 -100 -79 -53 -81 -58 -21
-66 27 -3 57 -13 66 -22 14 -14 14 -18 -9 -42 l-24 -26 -129 5 c-114 4 -131 7
-150 26 -19 20 -20 23 -6 48 9 15 41 43 73 62 64 37 62 51 -8 51 -62 0 -83 33
-47 73 16 18 26 19 142 13 83 -5 133 -12 148 -22z m-5301 -24 c59 -36 79 -110
46 -168 -29 -51 -75 -74 -156 -79 -97 -6 -104 -9 -83 -31 9 -10 16 -26 16 -34
0 -22 17 -26 65 -16 22 5 70 12 107 15 67 5 67 5 74 -22 12 -46 -5 -58 -109
-76 -111 -20 -117 -22 -117 -53 0 -13 -7 -29 -15 -36 -14 -11 -13 -14 5 -27
11 -8 20 -23 20 -33 0 -31 11 -50 30 -50 20 0 30 19 30 59 0 31 17 50 69 76
39 20 73 10 115 -34 21 -22 27 -38 27 -79 1 -29 -4 -59 -11 -67 -28 -33 -73
-7 -76 43 -3 49 -4 52 -17 52 -7 0 -21 -25 -31 -55 -22 -72 -55 -99 -115 -92
-50 6 -74 29 -93 90 -9 30 -9 43 0 58 16 25 15 46 -1 52 -8 3 -21 42 -30 90
-20 100 -21 129 -6 144 8 8 8 17 0 31 -6 11 -11 32 -11 47 0 34 31 45 129 45
65 0 81 3 96 20 17 19 17 21 -1 41 -16 18 -29 21 -99 19 -111 -3 -114 -3 -126
24 -8 17 -8 29 0 45 11 19 20 21 124 21 93 0 117 -3 144 -20z m5291 -273 l22
-24 -20 -25 c-11 -14 -31 -29 -45 -32 -34 -9 -32 -32 6 -63 35 -30 37 -71 3
-84 -17 -6 -37 4 -93 47 -59 44 -80 54 -112 54 -43 0 -79 27 -79 60 0 29 33
42 98 35 49 -5 66 -1 122 24 36 16 68 30 71 30 3 1 15 -10 27 -22z m-4972
-963 c13 -15 29 -44 36 -65 6 -21 24 -50 39 -65 16 -15 29 -32 29 -36 0 -9 36
-63 58 -86 6 -7 12 -19 12 -26 0 -7 11 -23 25 -36 31 -29 32 -54 3 -79 -136
-114 -143 -122 -126 -153 15 -30 41 -20 116 42 81 69 116 77 133 33 10 -26 6
-31 -53 -85 -59 -54 -143 -108 -169 -108 -27 0 -82 36 -105 69 -51 75 -22 145
95 230 20 15 22 21 12 39 -17 33 -48 27 -125 -23 -80 -53 -104 -61 -130 -42
-18 13 -18 18 -6 46 9 23 33 43 84 73 75 43 86 53 86 78 0 22 -68 125 -83 125
-7 0 -14 -22 -17 -59 -5 -49 -10 -62 -35 -82 -44 -36 -73 -40 -114 -18 -38 20
-81 84 -81 121 0 27 37 55 58 44 9 -5 23 -24 31 -42 26 -55 45 -44 51 29 4 55
9 67 34 89 40 34 107 28 142 -13z m4488 20 c3 -8 -1 -31 -9 -51 -8 -19 -15
-39 -15 -44 0 -17 29 -9 58 16 40 33 82 41 119 21 60 -31 77 -88 47 -152 -28
-58 -86 -83 -114 -49 -10 12 -8 22 14 55 25 38 27 60 6 60 -5 0 -31 -14 -59
-31 -45 -28 -53 -30 -83 -20 -29 10 -35 9 -50 -9 -20 -25 -15 -43 15 -59 58
-31 120 -73 135 -90 22 -27 15 -60 -15 -67 -30 -8 -68 10 -146 68 -46 34 -53
37 -71 24 -43 -28 -32 -50 53 -116 69 -52 81 -65 81 -91 0 -40 -28 -50 -122
-42 l-73 6 38 -40 c30 -31 38 -47 35 -69 -2 -18 -10 -30 -20 -32 -20 -4 -84
38 -161 104 -82 70 -77 68 -77 36 0 -16 -9 -41 -21 -56 -12 -15 -18 -33 -15
-43 6 -14 11 -12 34 10 32 31 54 34 76 11 21 -21 20 -27 -10 -63 -43 -51 -6
-71 48 -26 33 28 48 31 66 13 22 -22 13 -46 -37 -97 -68 -70 -88 -73 -139 -19
-22 23 -43 40 -46 37 -3 -3 -1 -23 5 -44 24 -87 -19 -183 -100 -224 -48 -25
-64 -16 -131 75 -30 40 -58 74 -62 74 -11 0 -10 -38 1 -45 17 -10 61 -113 61
-141 0 -44 -46 -102 -92 -116 -67 -20 -114 3 -166 82 -24 36 -50 68 -57 72 -7
4 -22 -3 -36 -18 -19 -20 -21 -28 -12 -42 27 -40 83 -157 83 -173 0 -10 -10
-25 -22 -33 -33 -23 -55 -3 -104 93 -23 45 -46 87 -52 93 -13 13 -152 -49
-152 -68 0 -8 20 -16 48 -20 94 -14 144 -107 90 -165 -30 -31 -66 -54 -100
-62 -21 -6 -32 -2 -48 15 -30 33 -25 47 26 68 25 11 44 25 42 32 -2 6 -28 17
-56 23 -84 19 -122 68 -102 130 15 44 36 62 95 76 28 7 57 18 65 25 29 23 137
81 165 88 16 4 42 17 58 28 41 29 67 14 118 -72 40 -68 69 -93 96 -83 6 3 14
11 17 18 5 14 -54 137 -80 166 -34 38 -5 86 47 75 27 -5 30 -4 24 15 -5 16 4
31 42 68 61 59 122 80 177 60 48 -17 53 -7 21 35 -24 31 -26 38 -14 54 33 43
77 85 104 98 17 8 37 29 45 47 15 32 15 32 92 32 42 0 79 3 83 7 3 3 -10 19
-29 35 -20 15 -36 35 -36 44 0 33 151 249 174 249 9 0 16 18 20 51 5 34 15 59
31 75 27 27 70 32 79 8z m-4060 -586 c48 -41 76 -96 76 -148 l0 -41 30 21 c21
15 37 19 52 14 37 -11 96 -64 113 -100 13 -28 20 -33 38 -28 37 9 55 -22 59
-95 2 -36 8 -66 13 -68 6 -1 19 10 30 27 34 51 25 52 213 -37 39 -19 80 -45
90 -57 13 -17 31 -24 72 -28 61 -6 103 -41 93 -78 -6 -22 -9 -23 -65 -20 -21
1 -38 -3 -38 -8 0 -5 14 -26 30 -47 89 -112 -43 -223 -168 -141 -26 17 -32 27
-30 51 4 36 33 44 79 21 53 -26 67 2 24 48 -37 40 -46 63 -40 99 8 40 -16 68
-43 51 -19 -13 -81 -122 -82 -146 0 -20 -37 -48 -62 -48 -35 0 -42 42 -17 101
13 30 33 70 45 90 21 33 21 38 8 58 -21 29 -48 26 -70 -6 -26 -39 -42 -65 -53
-88 -15 -33 -50 -65 -71 -65 -36 0 -50 27 -50 100 0 78 -12 95 -35 50 -8 -16
-29 -37 -45 -45 -28 -14 -30 -14 -45 8 -20 32 -9 59 76 184 33 47 37 73 11 73
-10 0 -33 11 -52 25 -19 14 -38 25 -42 25 -18 0 -6 -41 17 -56 30 -20 40 -47
25 -74 -14 -26 -34 -25 -71 2 -26 20 -31 20 -45 6 -14 -14 -13 -17 13 -39 39
-33 45 -44 37 -74 -11 -46 -53 -31 -142 49 -18 16 -32 39 -32 50 0 12 20 44
45 73 25 28 45 54 45 57 0 12 -28 6 -33 -7 -7 -20 -70 -47 -106 -47 -70 0
-171 78 -171 132 0 26 15 47 83 119 72 76 86 87 118 88 27 1 45 -7 73 -31z
m1147 -654 c25 -13 30 -20 27 -47 -3 -31 -5 -32 -48 -32 -53 0 -55 -13 -9 -60
37 -39 41 -107 8 -149 -18 -23 -27 -26 -85 -26 -56 0 -68 4 -89 25 -32 31 -32
52 -1 66 18 9 33 8 56 0 55 -19 70 12 23 49 -33 26 -52 57 -53 87 -1 81 92
128 171 87z m1384 -6 c15 -21 14 -24 -5 -40 -12 -10 -37 -20 -56 -24 -49 -9
-77 -48 -71 -98 8 -61 67 -97 98 -60 10 13 10 17 -2 25 -8 5 -19 9 -25 9 -7 0
-14 6 -17 13 -9 23 11 54 43 67 49 20 77 0 101 -73 21 -61 18 -77 -19 -110
-22 -21 -131 -33 -177 -19 -46 13 -95 91 -95 152 0 61 10 87 46 124 58 58 149
75 179 34z m-1138 -60 c19 -18 26 -19 52 -9 39 17 120 5 148 -22 21 -19 24
-19 41 -4 19 18 50 22 67 9 15 -11 45 -80 45 -105 0 -12 4 -28 9 -36 11 -16
28 11 46 74 15 49 46 71 108 79 69 8 87 -12 88 -101 0 -38 4 -93 9 -123 9 -65
-6 -100 -45 -100 -33 0 -37 10 -46 112 -5 49 -12 94 -15 100 -10 15 -34 -20
-34 -49 0 -12 -6 -37 -14 -55 -8 -18 -20 -47 -26 -65 -7 -18 -23 -39 -37 -48
-41 -27 -65 -2 -102 107 -18 51 -34 99 -37 107 -7 21 -44 -43 -44 -76 0 -14 5
-43 12 -64 10 -34 9 -42 -7 -59 -10 -11 -23 -20 -30 -20 -20 0 -42 32 -54 78
-14 50 -41 58 -41 11 0 -43 -17 -69 -45 -69 -38 0 -57 45 -46 112 15 88 19
135 12 146 -8 14 -113 3 -108 -12 2 -6 12 -13 23 -15 24 -4 54 -30 54 -46 0
-23 -37 -46 -71 -43 -28 3 -34 0 -34 -16 0 -14 10 -22 35 -29 19 -4 40 -14 47
-20 18 -17 4 -56 -21 -63 -27 -7 -114 12 -144 32 -20 13 -22 20 -17 67 12 107
38 222 54 235 24 20 140 6 168 -20z m871 -3 c15 -18 22 -48 26 -103 4 -42 10
-96 15 -119 6 -32 4 -48 -6 -63 -24 -34 -57 -25 -107 31 -25 28 -50 48 -55 45
-4 -3 -6 -26 -4 -50 5 -38 2 -46 -16 -56 -12 -6 -32 -10 -44 -8 -20 3 -23 11
-29 78 -4 41 -14 100 -23 130 -23 76 -10 110 40 110 30 0 40 -7 76 -52 23 -29
45 -54 50 -56 5 -2 9 25 9 61 0 35 3 67 7 70 14 15 42 6 61 -18z"/>
<path d="M3602 5998 c-16 -21 -24 -92 -13 -121 12 -32 31 -42 64 -33 68 17 57
166 -12 166 -16 0 -33 -6 -39 -12z"/>
<path d="M2690 5885 c-20 -24 -8 -111 20 -140 29 -31 35 -31 65 1 29 31 31 65
7 114 -13 27 -24 36 -48 38 -19 2 -36 -3 -44 -13z"/>
<path d="M1579 5213 c-15 -40 6 -80 54 -104 40 -21 40 -21 66 -1 36 28 32 69
-11 104 -45 38 -95 38 -109 1z"/>
<path d="M2328 4819 c-137 -14 -265 -44 -344 -80 -23 -11 -44 -19 -47 -19 -14
0 -102 -66 -157 -117 -63 -58 -93 -105 -134 -206 -77 -192 -44 -360 98 -502
102 -103 212 -167 583 -341 138 -64 238 -165 244 -244 7 -104 -23 -147 -126
-182 -67 -22 -181 -21 -320 4 -77 14 -103 20 -225 55 -30 8 -117 46 -193 84
-76 38 -141 69 -144 69 -3 0 -2 -15 1 -32 7 -35 17 -119 37 -306 15 -136 16
-136 143 -157 48 -8 90 -16 94 -19 5 -3 51 -10 103 -15 52 -6 126 -15 164 -21
112 -17 555 -15 645 3 41 9 94 19 117 22 24 4 45 11 49 16 3 5 14 9 25 9 26 0
203 93 266 140 139 106 234 325 221 508 -6 71 -35 171 -70 237 -27 52 -132
154 -189 183 -24 12 -71 37 -104 55 -71 38 -133 62 -273 108 -154 50 -280 116
-319 168 -89 116 15 222 214 221 107 -1 355 -53 451 -95 37 -17 66 -24 71 -19
5 5 12 91 16 192 l7 182 -36 15 c-20 9 -58 18 -84 21 -26 3 -60 10 -77 15 -84
24 -435 60 -564 58 -36 -1 -101 -5 -143 -10z"/>
<path d="M3782 4016 c-56 -8 -86 -18 -95 -30 -12 -17 -40 -80 -137 -313 -23
-55 -40 -105 -36 -111 6 -10 111 7 134 22 24 14 250 56 306 56 165 0 311 -58
336 -135 18 -55 -2 -111 -62 -167 -28 -27 -55 -48 -60 -48 -5 0 -28 -9 -51
-19 -38 -17 -135 -42 -337 -87 -159 -35 -218 -53 -290 -88 -156 -74 -205 -108
-263 -184 -85 -110 -117 -207 -117 -347 0 -86 27 -221 49 -249 5 -6 12 -22 16
-35 8 -26 26 -49 99 -128 80 -87 229 -152 406 -179 52 -8 118 -18 145 -23 28
-6 82 -10 122 -10 l72 -1 25 51 c15 28 26 55 26 61 0 11 39 100 81 185 14 29
24 55 21 58 -3 3 -17 5 -32 5 -121 0 -260 143 -260 267 0 55 34 129 82 180 29
30 239 143 266 143 7 0 21 -9 32 -20 17 -17 20 -33 20 -107 0 -181 29 -440 55
-489 8 -16 15 -34 15 -40 0 -6 33 -45 73 -86 116 -120 284 -192 502 -217 55
-6 138 -11 185 -11 l85 0 22 43 c12 23 34 74 49 112 14 39 39 94 55 124 42 80
42 80 -41 96 -105 21 -204 131 -231 255 -29 138 -31 170 -23 360 15 326 10
532 -14 621 -64 237 -188 359 -451 446 -42 14 -114 29 -161 35 -137 15 -523
18 -618 4z"/>
<path d="M5350 5213 c-42 -17 -66 -93 -38 -121 15 -15 53 -16 79 -2 22 12 49
61 49 89 0 32 -48 50 -90 34z"/>
<path d="M810 3523 c-11 -15 -20 -36 -18 -47 3 -18 13 -22 66 -29 34 -5 69 -6
77 -3 26 10 17 52 -16 80 -41 34 -81 34 -109 -1z"/>
<path d="M5130 1254 c-14 -7 -25 -17 -25 -21 0 -11 97 -133 105 -133 19 0 33
35 32 78 0 39 -5 50 -29 69 -32 26 -47 27 -83 7z"/>
<path d="M1602 1379 c-42 -42 -50 -55 -42 -69 22 -41 85 -35 125 12 14 16 25
36 25 44 0 21 -30 64 -45 64 -7 0 -35 -23 -63 -51z"/>
<path d="M3231 681 c-8 -5 -10 -14 -7 -20 9 -13 33 -15 40 -2 9 14 -18 31 -33
22z"/>
</g>
</svg>
